<?xml version="1.0" encoding="UTF-8"?>
<svg id="Layer_2" data-name="Layer 2" xmlns="http://www.w3.org/2000/svg" viewBox="0 0 130 80">
  <defs>
    <style>
      .cls-1 {
        stroke: #fff;
        stroke-linecap: round;
        stroke-linejoin: round;
        stroke-width: 2px;
      }

      .cls-1, .cls-2 {
        fill: none;
      }
    </style>
  </defs>
  <g id="Layer_1-2" data-name="Layer 1">
    <g>
      <path class="cls-1" d="m38.7,49.33c-.48.94-.75,2-.75,3.13,0,3.79,3.08,6.87,6.87,6.87s6.87-3.08,6.87-6.87c0-1.13-.27-2.19-.75-3.13h-12.24Z"/>
      <path class="cls-1" d="m59.45,49.33c-.48.94-.75,2-.75,3.13,0,3.79,3.08,6.87,6.87,6.87s6.87-3.08,6.87-6.87c0-1.13-.27-2.19-.75-3.13h-12.24Z"/>
      <path class="cls-1" d="m80.21,49.33c-.48.94-.75,2-.75,3.13,0,3.79,3.08,6.87,6.87,6.87s6.87-3.08,6.87-6.87c0-1.13-.27-2.19-.75-3.13h-12.24Z"/>
      <path class="cls-1" d="m30.54,49.33h70.36c.3,0,.54.24.54.54v.26c0,8.42-6.84,15.26-15.26,15.26h-40.67c-8.56,0-15.52-6.95-15.52-15.52h0c0-.3.24-.54.54-.54Z"/>
      <polygon class="cls-1" points="37.95 28.82 42.88 14.61 67.52 14.61 72.44 28.82 37.95 28.82"/>
      <polygon class="cls-1" points="28.48 28.82 74.72 28.82 84 35.26 25.63 35.26 28.48 28.82"/>
      <polygon class="cls-1" points="25.63 35.26 21.93 43.66 27.06 49.33 104.94 49.33 108.07 44.36 90.3 35.26 25.63 35.26"/>
      <polygon class="cls-1" points="90.73 23.99 70.77 23.99 68.87 18.51 90.73 18.51 90.73 23.99"/>
      <rect class="cls-1" x="90.73" y="17.16" width="6.01" height="8.17"/>
    </g>
    <rect class="cls-2" width="130" height="80"/>
  </g>
</svg>