<?xml version="1.0" encoding="UTF-8"?>
<svg id="Layer_2" data-name="Layer 2" xmlns="http://www.w3.org/2000/svg" viewBox="0 0 130 80">
  <defs>
    <style>
      .cls-1 {
        fill: #fff;
      }

      .cls-2 {
        fill: none;
      }
    </style>
  </defs>
  <g id="Layer_1-2" data-name="Layer 1">
    <g>
      <path class="cls-1" d="m98.46,14.41H3.15c-.54,0-.98.44-.98.98v33.94c0,.54.44.98.98.98h95.32c.54,0,.98-.44.98-.98V15.39c0-.54-.44-.98-.98-.98,0,0,0,0,0,0ZM4.13,48.35v-31.98h93.36v31.98H4.13Z"/>
      <path class="cls-1" d="m110.07,50.55c-4.15,0-7.52,3.37-7.52,7.52,0,4.15,3.37,7.52,7.52,7.52,4.15,0,7.52-3.37,7.52-7.52,0-4.15-3.37-7.52-7.52-7.52Zm0,13.08c-3.07,0-5.56-2.49-5.56-5.56s2.49-5.56,5.56-5.56,5.56,2.49,5.56,5.56h0c0,3.07-2.49,5.56-5.56,5.56h0Z"/>
      <path class="cls-1" d="m110.07,54.07c-2.21,0-4,1.79-4,4,0,2.21,1.79,4,4,4,2.21,0,4-1.79,4-4h0c0-2.21-1.79-4-4-4Zm0,6.04c-1.13,0-2.04-.91-2.04-2.04s.91-2.04,2.04-2.04c1.13,0,2.04.91,2.04,2.04h0c0,1.13-.92,2.04-2.04,2.04Z"/>
      <path class="cls-1" d="m25.83,52.71c.4-.37.42-.99.05-1.39-.36-.39-.96-.42-1.36-.07-.82.75-1.45,1.68-1.84,2.72H3.15c-.54,0-.98.44-.98.98s.44.98.98.98h19.03c-.06.51-.08,1.02-.06,1.52.02.52.45.94.98.94h.05c.54-.03.96-.48.93-1.02-.03-.7.04-1.4.22-2.08.02-.05.04-.11.05-.16.26-.93.78-1.77,1.48-2.42Z"/>
      <path class="cls-1" d="m32.92,50.55c-4.15,0-7.52,3.37-7.52,7.52s3.37,7.52,7.52,7.52,7.52-3.37,7.52-7.52h0c0-4.15-3.37-7.52-7.52-7.52Zm0,13.08c-3.07,0-5.56-2.49-5.56-5.56,0-3.07,2.49-5.56,5.56-5.56,3.07,0,5.56,2.49,5.56,5.56h0c0,3.07-2.49,5.56-5.56,5.56h0Z"/>
      <path class="cls-1" d="m32.92,54.07c-2.21,0-4,1.79-4,4,0,2.21,1.79,4,4,4,2.21,0,4-1.79,4-4h0c0-2.21-1.79-4-4-4Zm0,6.04c-1.13,0-2.04-.91-2.04-2.04s.91-2.04,2.04-2.04,2.04.91,2.04,2.04c0,1.13-.92,2.04-2.04,2.04Z"/>
      <path class="cls-1" d="m49.07,50.55c-4.15,0-7.52,3.37-7.52,7.52s3.37,7.52,7.52,7.52,7.52-3.37,7.52-7.52h0c.03-4.13-3.29-7.49-7.42-7.52-.03,0-.07,0-.1,0Zm3.93,11.46c-2.17,2.17-5.69,2.17-7.87,0-2.17-2.17-2.17-5.69,0-7.87,2.17-2.17,5.69-2.17,7.87,0,1.04,1.04,1.63,2.46,1.63,3.93,0,1.48-.58,2.89-1.63,3.93h0Z"/>
      <path class="cls-1" d="m49.07,54.07c-2.21,0-4,1.8-4,4.01,0,2.21,1.8,4,4.01,4,2.21,0,4-1.79,4-4,0-2.21-1.8-4-4.01-4Zm0,6.04c-1.13,0-2.04-.92-2.04-2.05s.92-2.04,2.05-2.04c1.13,0,2.04.92,2.04,2.04,0,1.13-.92,2.04-2.05,2.04Z"/>
      <path class="cls-1" d="m98.46,53.42h-39.38c-.39-.82-.93-1.56-1.61-2.17-.4-.36-1.02-.33-1.38.07,0,0,0,0,0,0-.36.4-.33,1.02.07,1.38.59.54,1.04,1.21,1.32,1.95.01.05.03.11.06.16.29.82.41,1.69.37,2.55-.03.54.39,1,.93,1.02,0,0,0,0,0,0h.05c.53,0,.96-.41.98-.94.03-.69-.02-1.39-.15-2.07h38.74c.54,0,.98-.44.98-.98s-.44-.98-.98-.98h0Z"/>
      <path class="cls-1" d="m126.85,30.22h-1.71v-4.18c0-.54-.44-.98-.98-.98h-20.63c-.54,0-.98.44-.98.98v23.3c0,.54.44.98.98.98s.98-.44.98-.98h0v-22.32h18.68v3.21h-13.12c-.54,0-.98.44-.98.98v9.33c0,.54.44.98.98.98h.68c7,0,7.81.05,8.97,1.21.47.47.5,1.36.52,2.3.03.87.05,1.86.51,2.69s1.28,1.32,2.43,1.45v9.22h-2.2c-.54,0-.98.44-.98.98s.44.98.98.98h3.18c.54,0,.98-.44.98-.98v-27.18h.72v4.96c0,.54.44.98.98.98s.98-.44.98-.98h0v-5.94c0-.54-.44-.98-.98-.98Zm-15.8,1.96h12.14v15c-.44-.09-.6-.26-.7-.4-.22-.36-.26-1.01-.28-1.81-.03-1.16-.08-2.61-1.1-3.63-1.75-1.75-3.22-1.78-10.06-1.78v-7.37Z"/>
    </g>
    <rect class="cls-2" width="130" height="80"/>
  </g>
</svg>