<?xml version="1.0" encoding="UTF-8"?>
<svg id="Layer_2" data-name="Layer 2" xmlns="http://www.w3.org/2000/svg" xmlns:xlink="http://www.w3.org/1999/xlink" viewBox="0 0 125.99 57.72">
  <defs>
    <style>
      .cls-1 {
        fill: #fff;
      }

      .cls-2 {
        stroke: #e6e7e8;
        stroke-width: .11px;
      }

      .cls-2, .cls-3, .cls-4 {
        fill: none;
      }

      .cls-2, .cls-4 {
        stroke-miterlimit: 10;
      }

      .cls-5 {
        fill: #204a89;
      }

      .cls-6 {
        fill: #1c4e7f;
      }

      .cls-7 {
        clip-path: url(#clippath);
      }

      .cls-4 {
        stroke: #fff;
        stroke-width: 4.14px;
      }

      .cls-8 {
        fill: url(#linear-gradient);
      }
    </style>
    <clipPath id="clippath">
      <rect class="cls-3" width="48.91" height="47.37" rx="3.49" ry="3.49"/>
    </clipPath>
    <linearGradient id="linear-gradient" x1="-585.8" y1="1086.36" x2="-585.25" y2="1086.36" gradientTransform="translate(79839.52 -43003.53) rotate(-90) scale(73.47 -73.47)" gradientUnits="userSpaceOnUse">
      <stop offset="0" stop-color="#1c75bc"/>
      <stop offset=".22" stop-color="#1c75bc"/>
      <stop offset="1" stop-color="#0c1d60"/>
    </linearGradient>
  </defs>
  <g id="Layer_1-2" data-name="Layer 1">
    <g>
      <g>
        <path class="cls-6" d="m4.01,53.71c0,.57-.19,1-.58,1.31-.39.3-.93.45-1.64.45h-.64v2.16H.45v-5.56h1.47c1.39,0,2.09.55,2.09,1.64Zm-2.86,1.16h.56c.55,0,.95-.09,1.2-.27s.37-.47.37-.86c0-.36-.12-.62-.35-.8-.23-.18-.59-.27-1.08-.27h-.71v2.2Z"/>
        <path class="cls-6" d="m5.17,52.08h1.59c.75,0,1.28.11,1.61.33.33.22.5.57.5,1.04,0,.33-.09.6-.27.82-.18.21-.44.35-.79.42v.04c.43.07.74.22.95.45s.3.52.3.89c0,.5-.17.89-.51,1.16s-.81.42-1.42.42h-1.96v-5.56Zm.7,2.37h1.03c.44,0,.75-.07.95-.21.2-.14.3-.37.3-.7,0-.3-.11-.52-.33-.66-.22-.13-.56-.2-1.03-.2h-.92v1.77Zm0,.59v2.02h1.12c.45,0,.78-.09.99-.26.22-.17.32-.43.32-.78,0-.33-.11-.58-.34-.74-.23-.16-.57-.24-1.03-.24h-1.07Z"/>
        <path class="cls-6" d="m13.38,56.15c0,.48-.18.87-.52,1.15-.35.28-.84.42-1.46.42-.66,0-1.17-.09-1.53-.26v-.67c.24.1.49.18.77.24.28.06.54.09.79.09.42,0,.73-.08.94-.24.21-.16.32-.38.32-.66,0-.19-.04-.34-.11-.46-.08-.12-.2-.23-.38-.33-.18-.1-.45-.22-.81-.35-.51-.19-.88-.41-1.1-.66s-.33-.58-.33-.99c0-.43.16-.78.49-1.03.33-.26.76-.38,1.29-.38s1.07.1,1.53.31l-.22.6c-.48-.2-.92-.3-1.33-.3-.33,0-.59.07-.77.21s-.28.34-.28.6c0,.18.04.33.11.45s.19.23.35.33c.16.1.41.21.76.34.41.15.72.3.92.44.2.14.35.31.45.49.1.19.14.41.14.67Z"/>
        <path class="cls-6" d="m19.68,56.15c0,.48-.18.87-.52,1.15-.35.28-.84.42-1.46.42-.66,0-1.17-.09-1.53-.26v-.67c.24.1.49.18.77.24.28.06.54.09.79.09.42,0,.73-.08.94-.24.21-.16.32-.38.32-.66,0-.19-.04-.34-.11-.46-.08-.12-.2-.23-.38-.33-.18-.1-.45-.22-.81-.35-.51-.19-.88-.41-1.1-.66s-.33-.58-.33-.99c0-.43.16-.78.49-1.03.33-.26.76-.38,1.29-.38s1.07.1,1.53.31l-.22.6c-.48-.2-.92-.3-1.33-.3-.33,0-.59.07-.77.21s-.28.34-.28.6c0,.18.04.33.11.45s.19.23.35.33c.16.1.41.21.76.34.41.15.72.3.92.44.2.14.35.31.45.49.1.19.14.41.14.67Z"/>
        <path class="cls-6" d="m24.36,53.71c0,.57-.19,1-.58,1.31-.39.3-.93.45-1.64.45h-.64v2.16h-.7v-5.56h1.47c1.39,0,2.09.55,2.09,1.64Zm-2.86,1.16h.56c.55,0,.95-.09,1.2-.27s.37-.47.37-.86c0-.36-.12-.62-.35-.8-.23-.18-.59-.27-1.08-.27h-.71v2.2Z"/>
        <path class="cls-6" d="m28.62,57.64h-3.11v-5.56h3.11v.62h-2.41v1.73h2.27v.61h-2.27v1.99h2.41v.62Z"/>
        <path class="cls-6" d="m32.23,52.61c-.6,0-1.07.2-1.41.6-.34.4-.51.95-.51,1.64s.17,1.27.5,1.66c.33.39.81.58,1.42.58.4,0,.84-.07,1.33-.22v.61c-.24.09-.46.15-.68.18-.22.03-.47.05-.75.05-.82,0-1.45-.25-1.89-.75-.44-.5-.66-1.2-.66-2.12,0-.57.11-1.08.32-1.51.21-.43.52-.76.92-1,.4-.23.88-.35,1.43-.35.59,0,1.1.11,1.54.33l-.28.59c-.44-.2-.86-.3-1.26-.3Z"/>
        <path class="cls-6" d="m36.34,57.64h-2.01v-.4l.65-.15v-4.45l-.65-.16v-.4h2.01v.4l-.65.16v4.45l.65.15v.4Z"/>
        <path class="cls-6" d="m40.9,57.64l-.67-1.72h-2.21l-.66,1.72h-.71l2.17-5.58h.63l2.17,5.58h-.73Zm-.88-2.34l-.62-1.69-.27-.83c-.08.3-.16.58-.24.83l-.63,1.69h1.76Z"/>
        <path class="cls-6" d="m42.39,57.64v-5.56h.7v4.94h2.43v.62h-3.13Z"/>
        <path class="cls-6" d="m48.04,57.64h-2.01v-.4l.65-.15v-4.45l-.65-.16v-.4h2.01v.4l-.65.16v4.45l.65.15v.4Z"/>
        <path class="cls-6" d="m52.27,56.15c0,.48-.18.87-.52,1.15-.35.28-.84.42-1.46.42-.66,0-1.17-.09-1.53-.26v-.67c.24.1.49.18.77.24.28.06.54.09.79.09.42,0,.73-.08.94-.24.21-.16.32-.38.32-.66,0-.19-.04-.34-.11-.46-.08-.12-.2-.23-.38-.33-.18-.1-.45-.22-.81-.35-.51-.19-.88-.41-1.1-.66s-.33-.58-.33-.99c0-.43.16-.78.49-1.03.33-.26.76-.38,1.29-.38s1.07.1,1.53.31l-.22.6c-.48-.2-.92-.3-1.33-.3-.33,0-.59.07-.77.21s-.28.34-.28.6c0,.18.04.33.11.45s.19.23.35.33c.16.1.41.21.76.34.41.15.72.3.92.44.2.14.35.31.45.49.1.19.14.41.14.67Z"/>
        <path class="cls-6" d="m55.15,57.64h-.7v-4.95h-1.74v-.62h4.17v.62h-1.73v4.95Z"/>
        <path class="cls-6" d="m61.51,57.64h-.7v-4.95h-1.74v-.62h4.17v.62h-1.73v4.95Z"/>
        <path class="cls-6" d="m64.78,55.34v2.3h-.7v-5.56h1.53c.69,0,1.2.13,1.53.39.33.26.5.66.5,1.19,0,.74-.37,1.24-1.11,1.49l1.53,2.49h-.82l-1.35-2.3h-1.11Zm0-.59h.83c.45,0,.78-.09.99-.27.21-.18.31-.44.31-.79s-.1-.61-.32-.77c-.21-.16-.55-.24-1.02-.24h-.79v2.07Z"/>
        <path class="cls-6" d="m72.41,57.64l-.67-1.72h-2.21l-.66,1.72h-.71l2.17-5.58h.63l2.17,5.58h-.73Zm-.88-2.34l-.62-1.69-.27-.83c-.08.3-.16.58-.24.83l-.63,1.69h1.76Z"/>
        <path class="cls-6" d="m78.31,57.64h-.82l-2.98-4.62h-.03l.02.31c.03.46.05.86.05,1.2v3.11h-.65v-5.56h.81l.17.27,1.83,2.82.97,1.51h.03c0-.06-.02-.28-.03-.65-.02-.37-.02-.65-.02-.81v-3.14h.65v5.56Z"/>
        <path class="cls-6" d="m82.98,56.15c0,.48-.18.87-.52,1.15-.35.28-.84.42-1.46.42-.66,0-1.17-.09-1.53-.26v-.67c.24.1.49.18.77.24.28.06.54.09.79.09.42,0,.73-.08.94-.24.21-.16.32-.38.32-.66,0-.19-.04-.34-.11-.46-.08-.12-.2-.23-.38-.33-.18-.1-.45-.22-.81-.35-.51-.19-.88-.41-1.1-.66s-.33-.58-.33-.99c0-.43.16-.78.49-1.03.33-.26.76-.38,1.29-.38s1.07.1,1.53.31l-.22.6c-.48-.2-.92-.3-1.33-.3-.33,0-.59.07-.77.21s-.28.34-.28.6c0,.18.04.33.11.45s.19.23.35.33c.16.1.41.21.76.34.41.15.72.3.92.44.2.14.35.31.45.49.1.19.14.41.14.67Z"/>
        <path class="cls-6" d="m87.66,53.71c0,.57-.19,1-.58,1.31-.39.3-.93.45-1.64.45h-.64v2.16h-.7v-5.56h1.47c1.39,0,2.09.55,2.09,1.64Zm-2.86,1.16h.56c.55,0,.95-.09,1.2-.27s.37-.47.37-.86c0-.36-.12-.62-.35-.8-.23-.18-.59-.27-1.08-.27h-.71v2.2Z"/>
        <path class="cls-6" d="m93.67,54.85c0,.89-.23,1.59-.68,2.1s-1.08.76-1.89.76-1.45-.25-1.9-.75c-.45-.5-.67-1.21-.67-2.12s.22-1.61.67-2.11c.45-.5,1.08-.75,1.91-.75s1.43.25,1.88.76.67,1.21.67,2.1Zm-4.4,0c0,.74.16,1.3.47,1.68.31.39.77.58,1.37.58s1.05-.19,1.36-.57c.31-.38.46-.94.46-1.69s-.15-1.3-.46-1.68c-.31-.38-.76-.56-1.35-.56s-1.06.19-1.37.57c-.31.38-.47.94-.47,1.67Z"/>
        <path class="cls-6" d="m95.59,55.34v2.3h-.7v-5.56h1.53c.69,0,1.2.13,1.53.39.33.26.5.66.5,1.19,0,.74-.37,1.24-1.11,1.49l1.53,2.49h-.82l-1.35-2.3h-1.11Zm0-.59h.83c.45,0,.78-.09.99-.27.21-.18.31-.44.31-.79s-.1-.61-.32-.77c-.21-.16-.55-.24-1.02-.24h-.79v2.07Z"/>
        <path class="cls-6" d="m101.5,57.64h-.7v-4.95h-1.74v-.62h4.17v.62h-1.73v4.95Z"/>
        <path class="cls-6" d="m107.29,57.64l-.67-1.72h-2.21l-.66,1.72h-.71l2.17-5.58h.63l2.17,5.58h-.73Zm-.88-2.34l-.62-1.69-.27-.83c-.08.3-.16.58-.24.83l-.63,1.69h1.76Z"/>
        <path class="cls-6" d="m110.28,57.64h-.7v-4.95h-1.74v-.62h4.17v.62h-1.73v4.95Z"/>
        <path class="cls-6" d="m114.42,57.64h-2.01v-.4l.65-.15v-4.45l-.65-.16v-.4h2.01v.4l-.65.16v4.45l.65.15v.4Z"/>
        <path class="cls-6" d="m120.35,54.85c0,.89-.23,1.59-.68,2.1s-1.08.76-1.89.76-1.45-.25-1.9-.75c-.45-.5-.67-1.21-.67-2.12s.22-1.61.67-2.11c.45-.5,1.08-.75,1.91-.75s1.43.25,1.88.76.67,1.21.67,2.1Zm-4.4,0c0,.74.16,1.3.47,1.68.31.39.77.58,1.37.58s1.05-.19,1.36-.57c.31-.38.46-.94.46-1.69s-.15-1.3-.46-1.68c-.31-.38-.76-.56-1.35-.56s-1.06.19-1.37.57c-.31.38-.47.94-.47,1.67Z"/>
        <path class="cls-6" d="m125.98,57.64h-.82l-2.98-4.62h-.03l.02.31c.03.46.05.86.05,1.2v3.11h-.65v-5.56h.81l.17.27,1.83,2.82.97,1.51h.03c0-.06-.02-.28-.03-.65-.02-.37-.02-.65-.02-.81v-3.14h.65v5.56Z"/>
      </g>
      <g id="Layer_1-2" data-name="Layer 1-2">
        <g class="cls-7">
          <g>
            <rect class="cls-8" width="48.91" height="47.37"/>
            <path class="cls-4" d="m-.31,48.01c12.52-13.54,33.65-14.37,47.19-1.85.77.71,1.51,1.46,2.21,2.25"/>
            <polygon class="cls-1" points="1.28 26.58 2.48 25.55 9.35 29.34 4.67 31.3 1.28 26.58"/>
            <polygon class="cls-2" points="1.28 26.58 2.48 25.55 9.35 29.34 4.67 31.3 1.28 26.58"/>
            <path class="cls-1" d="m4.97,32.23l13.66-5.76-6.48-9.1,1.7-2.07,15.43,7.14,11-4.14s4.29-2.08,6.48-1.04c2.19,1.04.7,3.92-2.21,5.18s-25.92,10.02-25.92,10.02l-3.29,1.15c-3.52.33-7.06-.14-10.37-1.38"/>
            <path class="cls-2" d="m4.97,32.23l13.66-5.76-6.48-9.1,1.7-2.07,15.43,7.14,11-4.14s4.29-2.08,6.48-1.04c2.19,1.04.7,3.92-2.21,5.18s-25.92,10.02-25.92,10.02l-3.29,1.15c-3.52.33-7.06-.14-10.37-1.38Z"/>
          </g>
        </g>
        <path class="cls-5" d="m55.57,16.83h10.74c1.64-.05,3.28.22,4.82.8,1.13.44,2.16,1.13,2.99,2.02.72.79,1.24,1.74,1.53,2.76.57,1.92.57,3.97,0,5.9-.29,1.03-.81,1.97-1.53,2.76-.83.89-1.85,1.58-2.99,2.02-1.54.57-3.18.84-4.82.78h-6.6v13.43h-4.13v-30.47Zm4.13,13.43h5.42c.8,0,1.6-.07,2.39-.19.74-.11,1.46-.35,2.11-.71.62-.35,1.14-.86,1.49-1.48.4-.78.59-1.65.55-2.52.04-.87-.15-1.74-.55-2.51-.35-.62-.86-1.14-1.49-1.49-.66-.36-1.37-.6-2.11-.71-.79-.13-1.59-.19-2.39-.19h-5.42v9.81Z"/>
        <path class="cls-5" d="m81.09,16.83h10.59c1.24,0,2.48.15,3.68.48,1.06.28,2.05.75,2.93,1.4.82.62,1.49,1.43,1.93,2.36.5,1.06.74,2.21.71,3.38.06,1.56-.46,3.09-1.47,4.28-1.02,1.13-2.33,1.97-3.79,2.43v.09c.9.05,1.78.3,2.58.71.79.42,1.5.98,2.09,1.66,1.25,1.45,1.93,3.31,1.91,5.23.03,1.26-.26,2.51-.84,3.64-.56,1.04-1.34,1.95-2.3,2.65-1.03.75-2.18,1.31-3.4,1.66-1.36.38-2.76.56-4.17.55h-10.45v-30.51Zm4.13,12.65h5.64c.74,0,1.49-.07,2.21-.24.65-.14,1.27-.41,1.81-.8.51-.37.93-.86,1.23-1.42.32-.66.47-1.38.45-2.11.02-1.15-.4-2.27-1.16-3.14-.78-.89-2.01-1.34-3.67-1.34h-6.5v9.04Zm0,14.2h6.08c.7,0,1.4-.07,2.09-.19.75-.13,1.47-.39,2.13-.77.66-.4,1.23-.94,1.66-1.57.49-.78.74-1.7.69-2.62,0-1.81-.59-3.16-1.76-4.07s-2.76-1.35-4.78-1.35h-6.1v10.59Z"/>
        <path class="cls-5" d="m109.1,40.93c.7,1.08,1.69,1.94,2.86,2.48,1.13.53,2.35.8,3.6.8.71,0,1.42-.11,2.11-.32.7-.21,1.37-.54,1.96-.97.58-.43,1.07-.97,1.44-1.6.38-.67.58-1.44.55-2.21.07-1.02-.34-2.01-1.11-2.69-.83-.66-1.76-1.18-2.76-1.55-1.11-.41-2.31-.81-3.61-1.2-1.28-.37-2.5-.92-3.62-1.62-1.12-.7-2.06-1.65-2.76-2.76-.81-1.43-1.19-3.07-1.11-4.71.05-2.11.91-4.11,2.41-5.6.93-.89,2.01-1.6,3.2-2.08,1.5-.6,3.1-.88,4.71-.84,1.62,0,3.23.23,4.77.69,1.59.5,2.99,1.48,4.01,2.8l-3.36,3.06c-.55-.83-1.31-1.5-2.21-1.94-1-.5-2.11-.75-3.23-.73-.97-.03-1.95.12-2.86.45-.69.25-1.31.65-1.83,1.16-.43.43-.76.95-.97,1.53-.18.48-.27.99-.28,1.51-.08,1.1.33,2.18,1.11,2.97.81.72,1.75,1.28,2.76,1.66,1.18.46,2.39.84,3.61,1.16,1.26.34,2.48.83,3.62,1.47,1.1.62,2.04,1.47,2.76,2.5.75,1.05,1.11,2.49,1.11,4.33.02,1.37-.27,2.72-.84,3.96-.53,1.14-1.3,2.15-2.26,2.97-.99.83-2.13,1.46-3.35,1.85-1.32.43-2.71.65-4.1.65-1.9.01-3.78-.34-5.55-1.03-1.67-.63-3.12-1.74-4.17-3.18l3.4-2.93Z"/>
      </g>
    </g>
  </g>
</svg>